<!DOCTYPE svg PUBLIC "-//W3C//DTD SVG 20010904//EN" "http://www.w3.org/TR/2001/REC-SVG-20010904/DTD/svg10.dtd">
<svg version="1.0" xmlns="http://www.w3.org/2000/svg" width="512px" height="512px" viewBox="0 0 5120 5120" preserveAspectRatio="xMidYMid meet">
<g id="layerbg1" fill="#cb2d2d" stroke="none">
 <path d="M1381 4086 c-17 -20 -11 -151 8 -151 10 0 13 19 13 78 0 85 -3 95 -21 73z"/>
 <path d="M3915 4091 c-3 -5 0 -13 5 -16 7 -4 11 -34 10 -68 -2 -82 -2 -81 15 -67 19 15 21 130 3 148 -14 14 -25 15 -33 3z"/>
 <path d="M1613 3848 c-14 -23 -13 -54 1 -73 14 -19 15 -19 22 -1 4 10 2 27 -5 37 -11 19 17 19 1059 19 1042 0 1070 0 1059 -19 -7 -10 -9 -27 -5 -37 7 -18 8 -18 22 1 14 19 15 50 1 73 -7 9 -233 12 -1077 12 -844 0 -1070 -3 -1077 -12z"/>
 <path d="M1625 3738 c-3 -8 0 -28 6 -44 7 -16 11 -34 10 -41 -1 -6 3 -14 8 -17 5 -3 7 -14 5 -24 -3 -9 2 -26 10 -37 13 -19 15 -19 21 -2 4 9 4 25 0 35 -10 23 -15 40 -21 82 -7 43 -30 72 -39 48z"/>
 <path d="M3732 3737 c-5 -6 -13 -32 -18 -57 -9 -52 -9 -50 -18 -72 -5 -10 -5 -25 -2 -34 9 -23 38 2 35 30 -1 12 3 32 8 46 27 65 23 122 -5 87z"/>
 <path d="M1674 3537 c-7 -19 14 -60 27 -52 14 9 11 41 -6 55 -12 10 -16 9 -21 -3z"/>
 <path d="M3679 3526 c-9 -20 -10 -29 -1 -38 8 -8 14 -4 23 16 9 20 10 29 1 38 -8 8 -14 4 -23 -16z"/>
 <path d="M1697 3462 c-6 -9 9 -88 20 -106 4 -5 7 -20 8 -33 1 -32 22 -52 31 -30 3 9 3 25 -2 35 -10 23 -10 21 -18 74 -8 46 -29 78 -39 60z"/>
 <path d="M3662 3457 c-5 -6 -13 -32 -18 -57 -9 -52 -9 -50 -18 -72 -5 -10 -5 -25 -2 -34 9 -23 38 2 35 30 -1 12 2 32 8 46 25 63 22 121 -5 87z"/>
 <path d="M1745 3258 c-4 -9 -1 -27 6 -40 7 -13 14 -39 16 -59 1 -20 8 -49 14 -65 7 -16 11 -35 10 -41 -1 -7 4 -23 11 -35 7 -13 13 -36 14 -51 2 -36 21 -57 30 -34 3 9 3 25 -2 35 -4 9 -9 28 -10 41 -2 13 -6 31 -10 40 -4 9 -8 23 -9 31 -4 33 -18 86 -24 95 -4 6 -8 23 -9 40 -1 16 -9 36 -17 44 -12 13 -15 13 -20 -1z"/>
 <path d="M3612 3248 c-14 -14 -16 -35 -3 -43 14 -8 35 35 24 46 -5 5 -14 4 -21 -3z"/>
 <path d="M3593 3178 c-11 -13 -29 -96 -25 -112 2 -4 -2 -14 -9 -22 -6 -8 -8 -21 -5 -30 9 -24 39 3 32 30 -3 11 -1 25 4 31 14 17 30 99 21 108 -4 4 -13 2 -18 -5z"/>
 <path d="M3543 2968 c-6 -7 -13 -27 -16 -44 -3 -17 -10 -41 -16 -52 -8 -15 -8 -23 0 -28 14 -9 29 8 33 37 2 13 9 37 15 53 13 32 1 55 -16 34z"/>
 <path d="M1836 2902 c-9 -16 12 -64 27 -59 6 2 11 13 9 23 -5 26 -28 49 -36 36z"/>
 <path d="M1247 2574 c-15 -15 7 -24 58 -24 l55 0 2 -387 c2 -250 7 -388 13 -388 15 0 19 773 4 791 -12 14 -119 20 -132 8z"/>
 <path d="M3920 2565 c-7 -8 -10 -16 -6 -16 3 -1 9 -2 14 -3 6 -1 122 -49 202 -83 72 -31 160 -62 160 -56 0 3 8 -1 18 -9 28 -24 204 -90 214 -80 11 11 -6 24 -52 42 -45 17 -99 39 -127 53 -13 6 -26 7 -30 4 -3 -4 -13 -1 -22 7 -9 8 -50 28 -91 44 -41 16 -84 33 -95 37 -11 5 -25 9 -31 10 -6 0 -18 5 -25 11 -8 6 -32 17 -54 25 -22 7 -45 17 -51 21 -7 5 -17 2 -24 -7z"/>
 <path d="M1151 2556 c-8 -10 -9 -16 -2 -21 14 -8 53 13 46 26 -9 13 -31 11 -44 -5z"/>
 <path d="M1066 2551 c-3 -5 -15 -7 -25 -4 -10 3 -22 0 -25 -5 -3 -6 -14 -8 -24 -6 -9 3 -26 -2 -37 -10 -19 -13 -19 -15 -2 -21 9 -4 25 -4 35 0 18 8 27 10 80 19 40 6 54 14 47 27 -8 12 -42 12 -49 0z"/>
 <path d="M890 2513 c-8 -3 -26 -10 -40 -16 -14 -6 -29 -9 -34 -8 -5 1 -16 -5 -26 -14 -9 -8 -19 -12 -22 -9 -7 6 -84 -31 -93 -45 -3 -6 -11 -8 -18 -5 -16 6 -52 -32 -39 -40 5 -3 20 2 33 12 13 9 31 18 41 19 9 2 33 12 52 23 20 11 36 17 36 14 0 -2 10 1 23 8 12 7 24 13 27 13 69 13 104 30 94 46 -6 10 -12 10 -34 2z"/>
 <path d="M507 2333 c-42 -28 -66 -51 -63 -59 3 -7 0 -11 -7 -8 -18 6 -122 -102 -107 -111 7 -4 40 21 83 63 40 38 98 86 130 106 32 20 55 41 52 46 -9 15 -15 13 -88 -37z"/>
 <path d="M4535 2320 c-8 -13 3 -30 18 -30 7 0 50 -16 96 -35 46 -20 91 -37 100 -38 9 -2 31 -11 50 -21 19 -10 49 -23 68 -30 l34 -12 -108 -43 c-59 -24 -114 -49 -122 -55 -7 -6 -19 -11 -25 -11 -6 0 -34 -8 -63 -18 -53 -19 -81 -41 -65 -51 11 -7 109 31 133 51 9 7 18 11 21 8 3 -3 21 1 39 9 19 8 55 24 81 35 26 12 50 21 53 21 4 0 26 9 51 21 64 29 58 38 -59 90 -26 12 -51 19 -54 15 -4 -3 -13 0 -22 8 -9 8 -52 28 -96 45 -44 17 -88 36 -97 41 -22 12 -25 12 -33 0z"/>
 <path d="M288 2118 c-63 -89 -116 -214 -103 -246 8 -22 31 2 38 41 6 37 54 145 87 194 28 42 8 53 -22 11z"/>
 <path d="M4370 1939 c-63 -26 -120 -48 -126 -49 -16 0 -37 -27 -26 -34 10 -6 198 66 214 82 6 6 16 8 22 6 14 -6 51 32 39 39 -4 3 -60 -17 -123 -44z"/>
 <path d="M4095 1829 c-38 -17 -81 -35 -95 -41 -27 -12 -40 -16 -67 -21 -9 -2 -19 -9 -21 -15 -6 -20 28 -25 47 -8 10 9 21 13 24 10 4 -4 12 -3 19 3 7 5 47 22 88 38 82 31 103 43 94 56 -8 13 -11 12 -89 -22z"/>
 </g>
<g id="layerbg2" fill="#c41111" stroke="none">
 <path d="M2667 3950 c-839 -3 -1278 -8 -1280 -15 -1 -7 430 -11 1274 -13 1091 -2 1278 0 1288 12 7 8 8 16 4 18 -4 1 -583 1 -1286 -2z"/>
 <path d="M1609 3795 c-2 -17 3 -60 8 -68 5 -8 33 10 33 22 -1 12 -40 56 -41 46z"/>
 <path d="M3745 3771 c-9 -19 -11 -32 -5 -36 15 -9 27 2 32 30 8 37 -9 40 -27 6z"/>
 <path d="M1634 3676 c-8 -20 23 -69 37 -60 6 4 6 11 -1 19 -7 8 -9 18 -6 23 3 6 -1 15 -9 22 -12 10 -16 9 -21 -4z"/>
 <path d="M1655 3590 c-4 -7 1 -20 13 -32 26 -26 36 -9 13 21 -13 17 -20 20 -26 11z"/>
 <path d="M3695 3570 c-9 -10 -14 -24 -10 -30 8 -13 22 -5 35 20 14 26 -4 34 -25 10z"/>
 <path d="M1679 3515 c-5 -37 16 -104 28 -91 14 14 10 54 -8 76 -10 14 -19 21 -20 15z"/>
 <path d="M3679 3499 c-14 -27 -19 -68 -8 -74 10 -7 20 10 29 51 9 40 -4 54 -21 23z"/>
 <path d="M1726 3312 c-3 -5 2 -20 12 -33 24 -29 36 -11 13 20 -11 14 -21 19 -25 13z"/>
 <path d="M1749 3235 c-5 -37 16 -104 28 -91 14 14 10 54 -8 76 -10 14 -19 21 -20 15z"/>
 <path d="M3608 3217 c-12 -18 -15 -46 -9 -76 1 -2 7 2 15 8 15 13 27 79 15 87 -4 2 -13 -6 -21 -19z"/>
 <path d="M1796 3032 c-3 -5 2 -20 12 -33 24 -29 36 -11 13 20 -11 14 -21 19 -25 13z"/>
 <path d="M1816 2961 c-4 -5 -2 -12 3 -15 5 -3 7 -15 4 -25 -5 -20 15 -67 24 -57 13 13 11 55 -3 67 -7 6 -12 15 -9 19 3 5 1 11 -4 14 -5 4 -12 2 -15 -3z"/>
 <path d="M3545 2950 c-3 -5 -3 -10 1 -10 4 0 1 -8 -7 -17 -13 -16 -14 -25 -10 -57 0 -5 8 -3 17 4 8 7 14 23 12 34 -1 12 1 26 5 33 4 6 3 14 -2 17 -5 4 -12 2 -16 -4z"/>
 <path d="M1154 2570 c-12 -5 -25 -13 -28 -19 -9 -15 13 -24 28 -12 7 6 27 8 45 5 32 -7 66 10 55 27 -7 11 -72 11 -100 -1z"/>
 <path d="M3910 2560 c-14 -26 -9 -816 5 -813 6 2 12 151 15 410 3 225 9 399 13 389 6 -15 10 -17 19 -8 9 9 9 15 0 24 -19 19 -41 18 -52 -2z"/>
 <path d="M1032 2548 c-7 -7 -12 -8 -12 -4 0 5 -7 3 -15 -4 -8 -7 -12 -17 -9 -22 3 -5 14 -2 24 7 12 11 20 13 25 5 5 -8 11 -8 21 1 15 12 10 29 -10 29 -6 0 -17 -5 -24 -12z"/>
 <path d="M950 2533 c-25 -9 -40 -25 -34 -34 3 -5 19 -2 35 6 16 9 27 20 24 25 -4 6 -7 10 -8 9 -1 0 -9 -3 -17 -6z"/>
 <path d="M4046 2522 c-7 -12 18 -35 28 -25 3 4 12 -1 19 -11 12 -16 14 -16 26 -3 10 13 9 17 -7 26 -11 6 -22 8 -25 4 -4 -3 -13 0 -21 6 -8 7 -17 8 -20 3z"/>
 <path d="M830 2495 c-7 -9 -19 -14 -26 -11 -14 5 -47 -27 -37 -37 3 -4 14 0 23 8 10 9 21 15 26 14 17 -4 65 21 59 31 -9 15 -31 12 -45 -5z"/>
 <path d="M4155 2481 c-5 -9 17 -26 37 -30 21 -5 85 -35 100 -48 17 -15 35 -2 23 17 -7 11 -68 39 -95 43 -8 2 -25 8 -37 15 -13 7 -24 8 -28 3z"/>
 <path d="M662 2428 c-7 -7 -16 -13 -20 -13 -19 -2 -72 -37 -67 -45 10 -16 31 -11 50 10 10 12 24 19 31 16 14 -5 47 27 37 37 -9 10 -17 9 -31 -5z"/>
 <path d="M4506 2342 c-3 -5 3 -17 13 -26 11 -10 22 -13 25 -8 3 5 -3 17 -13 26 -11 10 -22 13 -25 8z"/>
 <path d="M4565 2310 c-6 -10 8 -19 37 -24 7 -1 23 -8 36 -14 12 -7 22 -10 22 -7 0 3 11 -2 24 -10 15 -10 26 -12 30 -6 4 5 -3 15 -14 21 -11 6 -20 8 -20 4 0 -4 -9 1 -19 10 -11 10 -24 15 -29 12 -5 -3 -15 1 -22 9 -14 17 -36 20 -45 5z"/>
 <path d="M372 2224 c-72 -72 -135 -160 -126 -176 3 -4 9 -6 14 -3 14 9 49 83 42 90 -3 3 1 3 11 -1 11 -4 19 0 23 12 9 25 85 104 100 104 19 0 28 20 16 32 -8 8 -31 -9 -80 -58z"/>
 <path d="M4746 2241 c-3 -4 3 -16 13 -25 22 -20 40 -4 21 19 -14 17 -26 19 -34 6z"/>
 <path d="M4806 2222 c-3 -6 1 -15 9 -22 8 -7 15 -9 15 -5 0 4 6 3 13 -3 23 -19 87 -41 92 -32 6 10 -42 38 -73 43 -11 2 -27 9 -35 15 -9 8 -18 9 -21 4z"/>
 <path d="M4890 2135 c-7 -8 -15 -13 -19 -11 -3 2 -22 -3 -41 -12 -19 -8 -38 -16 -42 -16 -5 -1 -8 -4 -8 -8 0 -7 5 -10 13 -7 1 0 12 2 25 5 13 2 33 10 45 16 12 7 25 12 29 13 14 0 30 23 20 29 -5 3 -15 -1 -22 -9z"/>
 <path d="M4715 2066 c-14 -10 -15 -15 -6 -21 8 -4 19 -1 28 8 20 19 1 30 -22 13z"/>
 <path d="M4645 2040 c-10 -11 -20 -18 -23 -15 -3 2 -14 -1 -26 -7 -22 -13 -36 -17 -74 -23 -31 -5 -55 -26 -43 -38 5 -5 18 -4 32 4 13 7 28 12 33 11 5 -2 17 5 27 14 11 9 19 14 19 10 0 -4 10 -1 23 6 12 7 25 11 28 11 12 -4 40 35 31 41 -5 3 -17 -3 -27 -14z"/>
 <path d="M200 1964 c-9 -10 -10 -18 -3 -25 8 -8 14 -5 22 9 13 25 -2 38 -19 16z"/>
 <path d="M4426 1951 c-10 -11 -13 -22 -8 -25 5 -3 17 3 26 13 10 11 13 22 8 25 -5 3 -17 -3 -26 -13z"/>
 <path d="M4342 1914 c-12 -8 -22 -12 -22 -9 0 3 -10 0 -22 -7 -24 -13 -38 -17 -76 -23 -28 -4 -64 -34 -56 -46 3 -5 20 -1 37 8 18 9 36 16 41 15 5 -2 17 5 27 14 11 9 19 14 19 10 0 -4 10 -1 23 6 12 6 28 13 35 14 29 5 43 14 37 24 -8 14 -17 13 -43 -6z"/>
 <path d="M177 1874 c-13 -13 -7 -91 7 -103 18 -15 1191 -11 1191 4 0 7 -204 11 -588 13 l-588 2 3 42 c3 38 -9 58 -25 42z"/>
 <path d="M4112 1818 c-7 -7 -12 -9 -12 -5 0 4 -10 2 -22 -5 -13 -7 -33 -13 -46 -13 -24 -1 -45 -23 -36 -37 3 -4 20 0 37 9 18 9 36 16 41 15 5 -2 17 5 28 15 11 10 22 17 24 16 5 -4 7 8 2 13 -3 2 -10 -2 -16 -8z"/>
 </g>
<g id="layerbg3" fill="#ffffff" stroke="none">
 <path d="M1387 4083 c-12 -11 -8 -128 5 -141 9 -9 306 -12 1274 -12 1074 0 1263 2 1273 14 7 9 11 40 9 78 l-3 63 -1276 3 c-701 1 -1279 -1 -1282 -5z"/>
 <path d="M1615 3837 c-7 -16 232 -966 247 -984 8 -10 168 -13 829 -13 l819 0 14 23 c7 12 28 81 45 152 17 72 40 164 50 205 11 41 27 104 36 140 8 36 20 81 25 100 15 54 71 280 81 329 5 24 6 47 3 52 -3 5 -461 9 -1075 9 -854 0 -1071 -3 -1074 -13z"/>
 <path d="M1475 2731 c-3 -5 -5 -269 -5 -586 0 -317 2 -581 5 -586 10 -15 2348 -12 2363 3 17 17 17 1149 0 1166 -15 15 -2353 18 -2363 3z"/>
 <path d="M1180 2559 c-267 -37 -479 -110 -650 -224 -81 -55 -198 -165 -239 -228 -18 -26 -43 -73 -57 -103 -29 -66 -59 -196 -51 -218 6 -15 66 -16 599 -14 l593 3 0 395 0 395 -65 1 c-36 1 -94 -2 -130 -7z"/>
 <path d="M3921 2557 c-15 -15 -15 -789 0 -804 7 -7 75 16 232 79 122 50 343 139 491 198 147 60 273 113 279 119 7 7 1 15 -24 24 -19 8 -104 42 -189 76 -85 35 -164 67 -175 71 -11 5 -139 57 -285 115 -146 59 -277 112 -292 120 -19 9 -29 10 -37 2z"/>
 </g>
<g id="layerbg4" fill="#c00000" stroke="none">
 <path d="M0 2560 l0 -2560 2560 0 2560 0 0 2560 0 2560 -2560 0 -2560 0 0 -2560z m3940 1448 l0 -68 -1275 0 -1275 0 0 68 0 67 1275 0 1275 0 0 -67z m-185 -210 c-2 -24 -8 -56 -14 -71 -6 -16 -11 -38 -11 -51 0 -12 -5 -27 -11 -33 -7 -7 -13 -27 -14 -45 -2 -18 -10 -62 -20 -98 -9 -36 -19 -79 -22 -97 -3 -18 -11 -37 -18 -43 -7 -6 -11 -19 -8 -29 3 -11 -1 -30 -8 -42 -7 -13 -14 -46 -16 -73 -2 -28 -7 -54 -13 -60 -5 -5 -10 -22 -10 -37 0 -15 -7 -32 -15 -39 -9 -8 -13 -21 -9 -36 4 -14 1 -31 -7 -40 -7 -9 -14 -38 -16 -66 -2 -28 -8 -57 -14 -64 -10 -12 -154 -14 -840 -14 -797 0 -829 1 -838 19 -6 10 -12 38 -14 62 -2 24 -9 55 -16 68 -7 13 -11 31 -8 42 3 10 -1 23 -9 30 -8 6 -14 22 -14 36 0 13 -5 33 -10 44 -6 10 -12 38 -14 62 -2 24 -9 54 -16 66 -6 13 -10 31 -7 42 3 10 -1 23 -9 30 -8 6 -14 22 -14 36 0 13 -5 33 -10 44 -6 10 -12 40 -14 65 -2 25 -9 51 -15 57 -6 6 -11 20 -11 31 0 11 -4 35 -10 53 -5 18 -15 49 -21 68 -6 20 -12 56 -14 80 l-4 45 1069 0 1069 0 -4 -42z m75 -1653 l0 -580 -1172 0 -1173 0 0 580 0 580 1173 0 1172 0 0 -580z m-2460 25 l0 -390 -590 0 -590 0 0 35 c0 53 19 122 56 201 59 129 136 213 286 314 78 52 111 70 183 100 11 5 38 16 60 25 22 10 49 21 60 25 11 5 31 10 45 13 14 2 61 14 105 26 44 13 93 21 109 18 16 -2 41 2 55 9 17 9 61 14 124 14 l97 0 0 -390z m2588 381 c37 -20 112 -51 123 -51 6 0 23 -6 37 -14 15 -8 54 -24 87 -36 33 -12 75 -28 93 -36 17 -8 49 -21 70 -30 20 -8 48 -20 62 -26 14 -6 34 -14 45 -18 11 -5 36 -15 57 -24 20 -9 41 -16 47 -16 6 0 19 -4 29 -9 39 -21 133 -61 142 -61 6 0 18 -4 28 -9 21 -11 54 -25 106 -46 34 -13 38 -17 25 -29 -8 -7 -48 -26 -89 -41 -41 -15 -79 -32 -84 -36 -6 -5 -16 -9 -24 -9 -7 0 -34 -9 -60 -21 -70 -31 -103 -45 -142 -59 -38 -14 -81 -32 -134 -55 -19 -8 -37 -15 -40 -15 -3 0 -25 -8 -49 -19 -23 -10 -62 -26 -87 -36 -25 -10 -63 -25 -85 -35 -96 -42 -124 -52 -133 -46 -5 3 -15 -1 -22 -9 -7 -8 -19 -15 -26 -15 -12 0 -14 67 -14 398 0 219 3 402 7 405 8 9 10 9 31 -2z"/>
 </g>
<g id="layer101" fill="#cb2d2d" stroke="none">
 <path d="M1387 4083 c-10 -9 -9 -143 1 -143 4 0 7 34 7 75 0 41 0 75 -1 75 0 0 -4 -3 -7 -7z"/>
 <path d="M3928 4082 c10 -7 13 -28 10 -75 -1 -36 1 -62 5 -58 4 4 7 36 5 71 -2 46 -7 65 -18 67 -12 4 -12 3 -2 -5z"/>
 <path d="M1617 3843 c-3 -5 480 -8 1073 -8 593 0 1076 3 1073 8 -2 4 -485 7 -1073 7 -588 0 -1071 -3 -1073 -7z"/>
 <path d="M1610 3808 c0 -7 5 -20 10 -28 8 -12 10 -11 10 7 0 12 -4 25 -10 28 -5 3 -10 0 -10 -7z"/>
 <path d="M3757 3814 c-4 -4 -7 -17 -7 -28 1 -19 1 -20 11 -3 11 19 8 43 -4 31z"/>
 <path d="M1634 3714 c10 -41 24 -51 18 -14 -2 17 -9 33 -15 37 -6 4 -7 -4 -3 -23z"/>
 <path d="M3736 3729 c-13 -43 -23 -98 -16 -94 10 6 32 96 26 103 -3 3 -7 -1 -10 -9z"/>
 <path d="M1650 3651 c0 -6 4 -13 10 -16 6 -3 7 1 4 9 -7 18 -14 21 -14 7z"/>
 <path d="M1660 3608 c0 -7 5 -20 10 -28 8 -12 10 -11 10 7 0 12 -4 25 -10 28 -5 3 -10 0 -10 -7z"/>
 <path d="M3708 3614 c-5 -4 -8 -16 -8 -28 0 -14 3 -17 11 -9 6 6 9 19 7 28 -1 9 -6 13 -10 9z"/>
 <path d="M1680 3528 c0 -7 5 -20 10 -28 8 -12 10 -11 10 7 0 12 -4 25 -10 28 -5 3 -10 0 -10 -7z"/>
 <path d="M3685 3520 c-4 -12 -5 -24 -2 -27 3 -2 8 5 12 17 4 12 5 24 2 27 -3 2 -8 -5 -12 -17z"/>
 <path d="M1703 3445 c3 -11 8 -35 12 -52 4 -18 10 -35 14 -38 11 -6 -12 91 -23 102 -5 4 -6 -1 -3 -12z"/>
 <path d="M3666 3449 c-14 -44 -23 -100 -16 -93 10 10 31 96 25 103 -3 2 -6 -2 -9 -10z"/>
 <path d="M1730 3328 c0 -7 5 -20 10 -28 8 -12 10 -11 10 7 0 12 -4 25 -10 28 -5 3 -10 0 -10 -7z"/>
 <path d="M3638 3334 c-5 -4 -8 -16 -8 -28 0 -14 3 -17 11 -9 6 6 9 19 7 28 -1 9 -6 13 -10 9z"/>
 <path d="M1750 3248 c0 -8 6 -23 14 -33 13 -18 14 -18 9 8 -6 29 -23 48 -23 25z"/>
 <path d="M3617 3243 c-4 -3 -7 -13 -7 -22 1 -13 3 -13 11 2 11 19 8 33 -4 20z"/>
 <path d="M1776 3150 c9 -44 23 -84 29 -79 6 6 -16 92 -27 104 -5 5 -6 -5 -2 -25z"/>
 <path d="M3596 3169 c-14 -44 -23 -100 -16 -93 10 10 31 96 25 103 -3 2 -6 -2 -9 -10z"/>
 <path d="M1800 3048 c0 -8 6 -23 14 -33 13 -18 14 -18 9 8 -6 29 -23 48 -23 25z"/>
 <path d="M3567 3044 c-4 -4 -7 -14 -7 -23 0 -11 3 -12 11 -4 6 6 10 16 7 23 -2 6 -7 8 -11 4z"/>
 <path d="M1821 2973 c0 -4 4 -17 9 -28 8 -19 9 -19 9 2 1 12 -3 25 -9 28 -5 3 -10 3 -9 -2z"/>
 <path d="M3545 2956 c-3 -9 -7 -23 -10 -31 -2 -8 -2 -15 1 -15 7 0 25 52 20 58 -3 3 -8 -3 -11 -12z"/>
 <path d="M1843 2886 c4 -10 7 -22 7 -27 0 -5 4 -9 9 -9 12 0 2 38 -12 47 -7 4 -8 0 -4 -11z"/>
 <path d="M3522 2875 c-6 -14 -8 -25 -3 -25 8 0 23 41 17 47 -1 2 -8 -8 -14 -22z"/>
 <path d="M1470 2729 c0 -5 5 -7 10 -4 6 3 10 8 10 11 0 2 -4 4 -10 4 -5 0 -10 -5 -10 -11z"/>
 <path d="M3825 2730 c3 -5 8 -10 11 -10 2 0 4 5 4 10 0 6 -5 10 -11 10 -5 0 -7 -4 -4 -10z"/>
 <path d="M1307 2563 l63 -4 3 -392 2 -392 0 395 0 395 -65 1 -65 1 62 -4z"/>
 <path d="M3926 2562 c-3 -5 1 -9 9 -9 8 0 12 4 9 9 -3 4 -7 8 -9 8 -2 0 -6 -4 -9 -8z"/>
 <path d="M1155 2550 c-8 -13 5 -13 25 0 13 8 13 10 -2 10 -9 0 -20 -4 -23 -10z"/>
 <path d="M1065 2540 c-7 -12 2 -12 30 0 19 8 19 9 -2 9 -12 1 -25 -3 -28 -9z"/>
 <path d="M3961 2546 c11 -11 99 -45 94 -36 -4 6 -22 17 -42 25 -34 14 -61 20 -52 11z"/>
 <path d="M1015 2530 c-8 -13 5 -13 25 0 13 8 13 10 -2 10 -9 0 -20 -4 -23 -10z"/>
 <path d="M960 2520 c-12 -8 -11 -10 7 -10 12 0 25 5 28 10 8 13 -15 13 -35 0z"/>
 <path d="M873 2497 c-47 -18 -51 -27 -5 -14 23 7 44 16 48 20 10 10 -5 8 -43 -6z"/>
 <path d="M4070 2500 c0 -5 7 -10 16 -10 8 0 12 5 9 10 -3 6 -10 10 -16 10 -5 0 -9 -4 -9 -10z"/>
 <path d="M4131 2475 c39 -21 165 -67 154 -56 -10 10 -160 71 -173 71 -4 -1 5 -7 19 -15z"/>
 <path d="M789 2463 c-13 -15 -12 -15 9 -4 23 12 28 21 13 21 -5 0 -15 -7 -22 -17z"/>
 <path d="M718 2439 c-21 -11 -38 -22 -38 -25 0 -3 3 -3 8 -1 4 2 24 11 45 21 20 9 37 19 37 21 0 9 -15 4 -52 -16z"/>
 <path d="M629 2393 c-13 -15 -12 -15 9 -4 23 12 28 21 13 21 -5 0 -15 -7 -22 -17z"/>
 <path d="M4316 2401 c14 -13 196 -83 201 -77 5 4 -61 36 -74 36 -6 0 -71 28 -95 41 -23 12 -45 12 -32 0z"/>
 <path d="M548 2352 c-16 -10 -28 -20 -28 -24 0 -4 16 2 35 13 34 20 43 30 28 28 -5 0 -20 -8 -35 -17z"/>
 <path d="M471 2299 c-13 -11 -22 -21 -20 -24 3 -2 18 7 34 20 17 13 26 24 20 24 -5 0 -21 -9 -34 -20z"/>
 <path d="M4540 2310 c0 -5 7 -10 16 -10 8 0 12 5 9 10 -3 6 -10 10 -16 10 -5 0 -9 -4 -9 -10z"/>
 <path d="M4615 2280 c70 -32 150 -62 140 -51 -11 10 -161 72 -173 70 -4 0 11 -9 33 -19z"/>
 <path d="M375 2210 c-27 -27 -46 -50 -42 -50 5 0 31 23 59 50 28 28 47 50 41 50 -5 0 -31 -22 -58 -50z"/>
 <path d="M4800 2205 c14 -8 46 -22 73 -30 26 -9 45 -21 41 -26 -3 -5 0 -9 5 -9 27 0 6 23 -36 40 -27 11 -56 24 -65 30 -10 5 -23 10 -30 10 -7 -1 -2 -7 12 -15z"/>
 <path d="M291 2111 c-24 -33 -28 -56 -5 -26 20 26 36 55 30 55 -3 0 -14 -13 -25 -29z"/>
 <path d="M4800 2104 c-47 -20 -96 -40 -109 -45 -13 -5 -21 -12 -19 -15 3 -3 21 2 39 10 19 8 55 24 80 35 26 11 59 23 73 27 24 6 47 25 29 24 -4 -1 -46 -17 -93 -36z"/>
 <path d="M253 2048 c-14 -20 -30 -58 -47 -111 -19 -56 -20 -71 -6 -62 6 3 10 16 10 28 0 12 13 52 29 90 29 66 32 79 14 55z"/>
 <path d="M4615 2030 c-11 -5 -38 -16 -59 -25 -22 -8 -37 -17 -34 -20 5 -6 107 33 123 47 12 11 -4 9 -30 -2z"/>
 <path d="M4468 1973 c-10 -2 -18 -9 -18 -14 0 -14 16 -11 30 6 7 8 11 14 9 14 -2 -1 -12 -3 -21 -6z"/>
 <path d="M4345 1921 c-49 -21 -99 -41 -109 -45 -10 -3 -17 -8 -14 -11 6 -6 197 70 211 84 15 15 15 15 -88 -28z"/>
 <path d="M4092 1819 c-40 -17 -71 -33 -69 -36 5 -5 138 46 152 58 17 16 -8 9 -83 -22z"/>
 <path d="M3985 1770 c-3 -5 -2 -10 4 -10 5 0 13 5 16 10 3 6 2 10 -4 10 -5 0 -13 -4 -16 -10z"/>
 <path d="M3950 1761 c-8 -6 -18 -7 -22 -5 -4 3 -8 0 -8 -5 0 -16 26 -13 40 4 14 17 11 19 -10 6z"/>
 <path d="M1470 1560 c0 -5 5 -10 11 -10 5 0 7 5 4 10 -3 6 -8 10 -11 10 -2 0 -4 -4 -4 -10z"/>
 <path d="M3825 1560 c-3 -5 -1 -10 4 -10 6 0 11 5 11 10 0 6 -2 10 -4 10 -3 0 -8 -4 -11 -10z"/>
 </g>
<g id="layer102" fill="#c41111" stroke="none">
 <path d="M2665 3940 l-1280 -5 1277 -3 c843 -1 1279 1 1283 8 3 6 5 9 3 8 -2 -2 -579 -5 -1283 -8z"/>
 <path d="M1620 3750 c0 -19 3 -21 12 -12 9 9 9 15 0 24 -9 9 -12 7 -12 -12z"/>
 <path d="M3746 3755 c-3 -8 -1 -15 4 -15 6 0 10 7 10 15 0 8 -2 15 -4 15 -2 0 -6 -7 -10 -15z"/>
 <path d="M1640 3664 c0 -8 5 -12 10 -9 6 4 8 11 5 16 -9 14 -15 11 -15 -7z"/>
 <path d="M3730 3660 c0 -7 3 -10 7 -7 3 4 3 10 0 14 -4 3 -7 0 -7 -7z"/>
 <path d="M1655 3630 c3 -5 8 -10 11 -10 3 0 2 5 -1 10 -3 6 -8 10 -11 10 -3 0 -2 -4 1 -10z"/>
 <path d="M1660 3583 c0 -6 8 -17 18 -24 16 -13 16 -13 2 6 -8 11 -16 22 -17 24 -2 2 -3 0 -3 -6z"/>
 <path d="M3700 3565 c-7 -9 -10 -18 -7 -21 3 -3 10 4 17 15 13 25 8 27 -10 6z"/>
 <path d="M1690 3470 c0 -19 3 -21 12 -12 9 9 9 15 0 24 -9 9 -12 7 -12 -12z"/>
 <path d="M3677 3475 c-4 -8 -2 -17 3 -20 6 -4 10 3 10 14 0 25 -6 27 -13 6z"/>
 <path d="M1710 3380 c0 -7 3 -10 7 -7 3 4 3 10 0 14 -4 3 -7 0 -7 -7z"/>
 <path d="M3660 3380 c0 -7 3 -10 7 -7 3 4 3 10 0 14 -4 3 -7 0 -7 -7z"/>
 <path d="M1745 3280 c3 -5 8 -10 11 -10 3 0 2 5 -1 10 -3 6 -8 10 -11 10 -3 0 -2 -4 1 -10z"/>
 <path d="M1760 3190 c0 -19 3 -21 12 -12 9 9 9 15 0 24 -9 9 -12 7 -12 -12z"/>
 <path d="M3610 3210 c-7 -14 -5 -59 3 -51 5 5 7 19 4 32 -2 13 -5 22 -7 19z"/>
 <path d="M1780 3100 c0 -7 3 -10 7 -7 3 4 3 10 0 14 -4 3 -7 0 -7 -7z"/>
 <path d="M3590 3100 c0 -7 3 -10 7 -7 3 4 3 10 0 14 -4 3 -7 0 -7 -7z"/>
 <path d="M3564 3008 c-4 -7 -3 -8 4 -4 12 7 16 16 8 16 -3 0 -8 -5 -12 -12z"/>
 <path d="M1815 3000 c3 -5 8 -10 11 -10 3 0 2 5 -1 10 -3 6 -8 10 -11 10 -3 0 -2 -4 1 -10z"/>
 <path d="M1830 2910 c0 -19 3 -21 12 -12 9 9 9 15 0 24 -9 9 -12 7 -12 -12z"/>
 <path d="M3540 2920 c-7 -18 -5 -49 3 -41 5 5 7 17 4 27 -3 11 -6 17 -7 14z"/>
 <path d="M1180 2560 c20 -13 57 -13 65 0 4 6 -11 10 -37 10 -31 0 -39 -3 -28 -10z"/>
 <path d="M3946 2557 c3 -10 9 -15 12 -12 3 3 0 11 -7 18 -10 9 -11 8 -5 -6z"/>
 <path d="M1135 2550 c-3 -5 -2 -10 4 -10 5 0 13 5 16 10 3 6 2 10 -4 10 -5 0 -13 -4 -16 -10z"/>
 <path d="M1045 2540 c4 -6 11 -8 16 -5 14 9 11 15 -7 15 -8 0 -12 -5 -9 -10z"/>
 <path d="M3915 2150 c0 -223 1 -314 2 -203 2 112 2 294 0 405 -1 112 -2 21 -2 -202z"/>
 <path d="M1004 2528 c-4 -7 -3 -8 4 -4 12 7 16 16 8 16 -3 0 -8 -5 -12 -12z"/>
 <path d="M925 2510 c-3 -6 1 -7 9 -4 18 7 21 14 7 14 -6 0 -13 -4 -16 -10z"/>
 <path d="M4055 2510 c3 -5 8 -10 11 -10 3 0 2 5 -1 10 -3 6 -8 10 -11 10 -3 0 -2 -4 1 -10z"/>
 <path d="M4097 2495 c3 -8 9 -12 14 -9 12 7 11 11 -5 17 -10 4 -13 1 -9 -8z"/>
 <path d="M829 2483 c-12 -16 -12 -17 1 -7 8 6 22 14 30 17 13 5 12 6 -1 6 -9 1 -23 -7 -30 -16z"/>
 <path d="M779 2463 c-13 -16 -12 -17 4 -4 9 7 17 15 17 17 0 8 -8 3 -21 -13z"/>
 <path d="M4233 2443 c4 -3 10 -3 14 0 3 4 0 7 -7 7 -7 0 -10 -3 -7 -7z"/>
 <path d="M665 2419 c-11 -17 1 -21 15 -4 8 9 8 15 2 15 -6 0 -14 -5 -17 -11z"/>
 <path d="M4290 2415 c7 -9 15 -13 17 -11 7 7 -7 26 -19 26 -6 0 -6 -6 2 -15z"/>
 <path d="M605 2389 c-18 -11 -24 -19 -14 -19 9 0 24 9 34 20 22 24 19 24 -20 -1z"/>
 <path d="M4345 2400 c3 -5 8 -10 11 -10 3 0 2 5 -1 10 -3 6 -8 10 -11 10 -3 0 -2 -4 1 -10z"/>
 <path d="M4403 2373 c4 -3 10 -3 14 0 3 4 0 7 -7 7 -7 0 -10 -3 -7 -7z"/>
 <path d="M543 2353 c4 -3 10 -3 14 0 3 4 0 7 -7 7 -7 0 -10 -3 -7 -7z"/>
 <path d="M4510 2336 c0 -2 8 -10 18 -17 15 -13 16 -12 3 4 -13 16 -21 21 -21 13z"/>
 <path d="M4570 2306 c0 -2 9 -6 20 -9 11 -3 18 -1 14 4 -5 9 -34 13 -34 5z"/>
 <path d="M4630 2286 c0 -2 7 -7 16 -10 8 -3 12 -2 9 4 -6 10 -25 14 -25 6z"/>
 <path d="M435 2270 c-3 -5 -1 -10 4 -10 6 0 11 5 11 10 0 6 -2 10 -4 10 -3 0 -8 -4 -11 -10z"/>
 <path d="M399 2243 c-13 -16 -12 -17 4 -4 9 7 17 15 17 17 0 8 -8 3 -21 -13z"/>
 <path d="M4760 2225 c7 -9 15 -13 17 -11 7 7 -7 26 -19 26 -6 0 -6 -6 2 -15z"/>
 <path d="M349 2193 l-24 -28 28 24 c25 23 32 31 24 31 -2 0 -14 -12 -28 -27z"/>
 <path d="M4815 2210 c3 -5 8 -10 11 -10 3 0 2 5 -1 10 -3 6 -8 10 -11 10 -3 0 -2 -4 1 -10z"/>
 <path d="M4873 2183 c4 -3 10 -3 14 0 3 4 0 7 -7 7 -7 0 -10 -3 -7 -7z"/>
 <path d="M315 2150 c-3 -5 -1 -10 4 -10 6 0 11 5 11 10 0 6 -2 10 -4 10 -3 0 -8 -4 -11 -10z"/>
 <path d="M4894 2128 c-4 -7 -3 -8 4 -4 7 4 12 9 12 12 0 8 -9 4 -16 -8z"/>
 <path d="M274 2098 c-4 -7 -3 -8 4 -4 12 7 16 16 8 16 -3 0 -8 -5 -12 -12z"/>
 <path d="M4833 2103 c4 -3 10 -3 14 0 3 4 0 7 -7 7 -7 0 -10 -3 -7 -7z"/>
 <path d="M256 2063 c-6 -14 -5 -15 5 -6 7 7 10 15 7 18 -3 3 -9 -2 -12 -12z"/>
 <path d="M4720 2060 c-9 -6 -10 -10 -3 -10 6 0 15 5 18 10 8 12 4 12 -15 0z"/>
 <path d="M4649 2033 c-13 -16 -12 -17 4 -4 16 13 21 21 13 21 -2 0 -10 -8 -17 -17z"/>
 <path d="M4550 1990 c-9 -6 -10 -10 -3 -10 6 0 15 5 18 10 8 12 4 12 -15 0z"/>
 <path d="M4494 1975 c-10 -8 -14 -14 -9 -15 15 0 40 18 34 24 -3 3 -14 -1 -25 -9z"/>
 <path d="M205 1959 c-4 -6 -5 -12 -2 -15 2 -3 7 2 10 11 7 17 1 20 -8 4z"/>
 <path d="M4429 1943 c-13 -16 -12 -17 4 -4 16 13 21 21 13 21 -2 0 -10 -8 -17 -17z"/>
 <path d="M4363 1913 c4 -3 10 -3 14 0 3 4 0 7 -7 7 -7 0 -10 -3 -7 -7z"/>
 <path d="M4250 1870 c-9 -6 -10 -10 -3 -10 6 0 15 5 18 10 8 12 4 12 -15 0z"/>
 <path d="M182 1823 l3 -48 595 0 595 0 -594 2 -594 3 6 45 c4 28 3 45 -4 45 -6 0 -9 -19 -7 -47z"/>
 <path d="M4189 1850 l-24 -20 28 11 c15 7 27 16 27 21 0 12 -5 10 -31 -12z"/>
 <path d="M4080 1800 c-9 -6 -10 -10 -3 -10 6 0 15 5 18 10 8 12 4 12 -15 0z"/>
 <path d="M4007 1776 c-4 -10 -1 -13 8 -9 8 3 12 9 9 14 -7 12 -11 11 -17 -5z"/>
 </g>
<g id="layer103" fill="#ffffff" stroke="none">
 <path d="M1392 4013 l3 -68 1270 0 1270 0 3 68 3 67 -1276 0 -1276 0 3 -67z"/>
 <path d="M1620 3832 c0 -14 240 -964 246 -973 3 -5 373 -9 824 -9 770 0 820 1 828 18 5 9 24 76 41 147 17 72 40 164 51 205 22 85 57 225 71 285 32 135 52 213 59 235 5 14 11 42 15 63 l6 37 -1071 0 c-588 0 -1070 -4 -1070 -8z"/>
 <path d="M1480 2725 c0 -3 0 -265 0 -582 l0 -578 1177 0 1178 0 0 580 0 580 -1177 3 c-648 1 -1178 0 -1178 -3z"/>
 <path d="M1180 2549 c-341 -47 -599 -156 -780 -331 -107 -103 -164 -200 -195 -333 -27 -118 -101 -105 575 -105 l590 0 0 390 0 390 -62 -1 c-35 -1 -92 -6 -128 -10z"/>
 <path d="M3926 2552 c-8 -7 -8 -787 -1 -794 3 -3 95 30 203 74 207 84 743 299 777 313 23 9 41 0 -200 96 -82 34 -159 65 -170 69 -11 5 -139 57 -285 115 -146 59 -277 112 -292 120 -15 7 -29 10 -32 7z"/>
 </g>
<g id="layer104" fill="#c00000" stroke="none">
 <path d="M0 2560 l0 -2560 2560 0 2560 0 0 2560 0 2560 -2560 0 -2560 0 0 -2560z m3945 1448 l0 -73 -1280 0 -1280 0 -3 75 -3 75 1283 -2 1283 -3 0 -72z m-179 -205 c-3 -27 -9 -61 -15 -76 -6 -16 -11 -38 -11 -51 0 -12 -5 -27 -11 -33 -7 -7 -13 -27 -14 -45 -2 -18 -10 -62 -20 -98 -9 -36 -19 -79 -22 -97 -3 -18 -11 -37 -18 -43 -7 -6 -11 -19 -8 -29 3 -11 -1 -30 -8 -42 -7 -13 -14 -46 -16 -73 -2 -28 -7 -54 -13 -60 -5 -5 -10 -22 -10 -37 0 -15 -7 -32 -15 -39 -9 -8 -13 -21 -9 -36 4 -14 1 -31 -7 -40 -7 -9 -14 -37 -16 -62 -1 -26 -8 -57 -14 -69 l-12 -23 -837 0 -838 0 -11 28 c-6 15 -12 45 -14 67 -2 22 -9 51 -16 64 -7 13 -11 31 -8 42 3 10 -1 23 -9 30 -8 6 -14 22 -14 36 0 13 -5 33 -10 44 -6 10 -12 38 -14 62 -2 24 -9 54 -16 66 -6 13 -10 31 -7 42 3 10 -1 23 -9 30 -8 6 -14 22 -14 36 0 13 -5 33 -10 44 -6 10 -12 40 -14 65 -2 25 -9 51 -15 57 -6 6 -11 20 -11 31 0 11 -4 35 -10 53 -5 18 -15 49 -21 68 -6 19 -12 58 -15 85 l-4 50 1080 0 1080 0 -4 -47z m74 -1658 l0 -590 -1182 0 -1183 0 0 590 0 590 1183 0 1182 0 0 -590z m-2465 25 l0 -395 -595 0 -595 0 -3 30 c-6 47 17 133 58 220 54 113 122 194 235 276 33 24 62 46 65 49 11 11 132 74 175 91 11 4 38 15 60 24 22 10 49 21 60 25 11 5 31 10 45 13 14 2 61 14 105 26 44 13 93 21 109 18 16 -2 41 2 55 10 18 9 56 12 126 11 l100 -3 0 -395z m2583 391 c37 -20 112 -51 123 -51 6 0 23 -6 37 -14 15 -8 54 -24 87 -36 33 -12 75 -28 93 -36 35 -16 96 -41 127 -53 37 -15 70 -29 107 -45 20 -9 41 -16 47 -16 6 0 19 -4 29 -9 39 -21 133 -61 142 -61 6 0 18 -4 28 -9 17 -9 59 -27 120 -51 59 -23 40 -42 -93 -90 -33 -13 -64 -26 -70 -31 -5 -5 -15 -9 -23 -9 -7 0 -34 -9 -60 -21 -70 -31 -103 -45 -142 -59 -41 -15 -81 -32 -132 -54 -20 -9 -39 -16 -42 -16 -3 0 -25 -8 -49 -19 -23 -10 -62 -26 -87 -36 -25 -10 -63 -25 -85 -35 -97 -43 -126 -53 -132 -47 -3 4 -14 0 -24 -9 -10 -9 -25 -14 -34 -11 -13 6 -15 55 -15 401 0 217 3 401 6 410 7 18 17 20 42 7z"/>
 </g>

</svg>